<svg width="48" height="48" viewBox="0 0 48 48" xmlns="http://www.w3.org/2000/svg" xmlns:xlink="http://www.w3.org/1999/xlink" xmlns:figma="http://www.figma.com/figma/ns">
  <g
transform="translate(18.579,16.8806)"
id="g280"><path
  id="path282"
  d="M 0,0 C -0.61,-0.292 -1.468,-0.44 -2.567,-0.44 H -8.719 V 6.226 H -2.48 C -1.396,6.216 -0.55,6.074 0.053,5.802 1.131,5.315 1.666,4.423 1.666,3.12 1.666,1.584 1.111,0.547 0,0 m -8.719,15.876 h 5.515 c 1.213,0 2.211,-0.131 2.997,-0.39 0.906,-0.376 1.359,-1.144 1.359,-2.312 0,-1.046 -0.344,-1.778 -1.029,-2.192 -0.69,-0.414 -1.584,-0.621 -2.681,-0.621 H -8.719 Z M 3.097,8.635 c 0.851,0.428 1.495,0.903 1.934,1.422 0.783,0.927 1.171,2.157 1.171,3.681 0,1.482 -0.388,2.752 -1.162,3.815 -1.289,1.731 -3.476,2.618 -6.566,2.663 H -13.769 V -4.778 h 11.416 c 1.288,0 2.478,0.11 3.58,0.336 1.102,0.228 2.054,0.644 2.861,1.255 0.719,0.533 1.316,1.189 1.794,1.967 0.754,1.175 1.13,2.504 1.13,3.986 0,1.436 -0.33,2.658 -0.986,3.662 C 5.363,7.434 4.389,8.169 3.097,8.635" />
</g>
  <path
id="path284"
d="m 41.865,35.931 h -10.857 v -3.111 h 10.857 z" />
<g
transform="translate(32.2731,23.173)"
id="g286"><path
  id="path288"
  d="M 0,0 C 0.178,1.203 0.615,2.157 1.306,2.861 1.998,3.565 2.977,3.917 4.23,3.917 5.387,3.917 6.354,3.586 7.14,2.923 7.916,2.255 8.355,1.284 8.444,0 Z M 11.869,4.302 C 11.021,5.548 9.943,6.461 8.634,7.037 7.328,7.615 5.86,7.905 4.228,7.905 1.482,7.905 -0.747,7.046 -2.471,5.341 -4.19,3.631 -5.05,1.175 -5.05,-2.028 c 0,-3.415 0.95,-5.884 2.861,-7.399 1.902,-1.517 4.103,-2.273 6.598,-2.273 3.02,0 5.37,0.899 7.048,2.694 1.075,1.132 1.683,2.248 1.815,3.341 H 8.271 C 7.981,-6.207 7.644,-6.63 7.26,-6.937 6.564,-7.5 5.655,-7.783 4.544,-7.783 c -1.056,0 -1.955,0.233 -2.702,0.696 -1.235,0.745 -1.881,2.045 -1.963,3.898 H 13.53 c 0.022,1.596 -0.031,2.823 -0.164,3.669 -0.226,1.449 -0.723,2.723 -1.497,3.822" /></g>
</svg>
