<svg width="693.241" height="150" viewBox="0 0 693.241 150" xmlns="http://www.w3.org/2000/svg" xmlns:xlink="http://www.w3.org/1999/xlink" xmlns:figma="http://www.figma.com/figma/ns"><title>Logo</title><g id="logo" stroke-linecap="round" fill-rule="evenodd" font-size="9pt" stroke="#000" stroke-width="0mm" fill="#000"><path d="M 307.351 45.703 L 307.351 56.445 Q 307.351 61.083 307.678 62.971 A 5.612 5.612 0 0 0 307.839 63.672 A 0.725 0.725 0 0 0 308.095 64.023 Q 308.646 64.474 310.305 64.795 Q 312.575 65.234 313.992 65.234 Q 314.228 65.55 314.29 66.28 A 6.187 6.187 0 0 1 314.309 66.65 Q 314.329 67.503 314.096 67.917 A 0.887 0.887 0 0 1 313.992 68.066 A 7794.299 7794.299 0 0 0 311.639 67.952 Q 305.051 67.633 303.81 67.586 A 9.887 9.887 0 0 0 303.542 67.578 A 73.536 73.536 0 0 0 301.047 67.619 A 65.871 65.871 0 0 0 300.246 67.651 A 117.409 117.409 0 0 0 298.769 67.729 Q 298.014 67.774 297.176 67.831 A 201.324 201.324 0 0 0 296.609 67.871 A 152.604 152.604 0 0 1 295.626 67.938 Q 294.216 68.03 293.191 68.066 Q 292.85 67.677 292.873 66.659 A 5.934 5.934 0 0 1 292.873 66.65 A 5.847 5.847 0 0 1 292.902 66.177 Q 292.971 65.527 293.191 65.234 A 11.975 11.975 0 0 0 294.159 65.191 Q 295.239 65.103 296.672 64.834 A 38.677 38.677 0 0 0 296.877 64.795 Q 298.707 64.441 299.189 63.928 A 0.63 0.63 0 0 0 299.343 63.672 Q 299.831 62.109 299.831 56.445 L 299.831 46.68 A 67.807 67.807 0 0 0 299.715 42.552 Q 299.481 38.729 298.774 36.302 A 10.072 10.072 0 0 0 297.854 34.058 A 6.278 6.278 0 0 0 294.415 31.291 Q 293.272 30.879 291.84 30.738 A 16.095 16.095 0 0 0 290.261 30.664 A 5.888 5.888 0 0 0 288.93 30.829 Q 288.284 30.979 287.567 31.266 A 14.288 14.288 0 0 0 286.33 31.836 A 26.376 26.376 0 0 0 284.484 32.88 Q 283.593 33.435 282.854 34.011 A 15.287 15.287 0 0 0 282.522 34.277 A 16.476 16.476 0 0 0 281.999 34.726 Q 281.268 35.383 281.063 35.773 A 0.584 0.584 0 0 0 280.984 36.035 L 280.984 56.445 Q 280.984 61.083 281.311 62.971 A 5.612 5.612 0 0 0 281.472 63.672 A 0.725 0.725 0 0 0 281.728 64.023 Q 282.279 64.474 283.938 64.795 Q 286.208 65.234 287.624 65.234 Q 287.861 65.55 287.922 66.28 A 6.187 6.187 0 0 1 287.942 66.65 Q 287.962 67.503 287.729 67.917 A 0.887 0.887 0 0 1 287.624 68.066 A 7794.299 7794.299 0 0 0 285.271 67.952 Q 278.684 67.633 277.443 67.586 A 9.887 9.887 0 0 0 277.175 67.578 A 73.536 73.536 0 0 0 274.68 67.619 A 65.871 65.871 0 0 0 273.879 67.651 A 117.409 117.409 0 0 0 272.402 67.729 Q 271.647 67.774 270.809 67.831 A 201.324 201.324 0 0 0 270.242 67.871 A 152.604 152.604 0 0 1 269.259 67.938 Q 267.849 68.03 266.824 68.066 Q 266.483 67.677 266.506 66.659 A 5.934 5.934 0 0 1 266.506 66.65 A 5.847 5.847 0 0 1 266.535 66.177 Q 266.604 65.527 266.824 65.234 A 11.975 11.975 0 0 0 267.792 65.191 Q 268.872 65.103 270.305 64.834 A 38.677 38.677 0 0 0 270.51 64.795 Q 272.34 64.441 272.822 63.928 A 0.63 0.63 0 0 0 272.976 63.672 Q 273.464 62.109 273.464 56.445 L 273.464 38.672 A 61.12 61.12 0 0 0 273.447 37.17 Q 273.373 34.155 272.976 33.203 A 1.224 1.224 0 0 0 272.636 32.744 Q 272.285 32.435 271.634 32.196 A 6.951 6.951 0 0 0 271.12 32.031 Q 269.558 31.592 268.508 31.519 A 32.864 32.864 0 0 0 267.572 31.466 Q 267.069 31.445 266.628 31.445 A 0.408 0.408 0 0 1 266.546 31.311 Q 266.449 31.074 266.419 30.532 A 8.438 8.438 0 0 1 266.408 30.273 A 7.063 7.063 0 0 1 266.406 30.143 Q 266.401 29.27 266.628 28.906 Q 274.978 27.783 280.593 24.805 A 0.481 0.481 0 0 1 280.842 24.88 Q 281.066 25.015 281.301 25.391 Q 281.628 25.914 281.663 26.282 A 0.905 0.905 0 0 1 281.667 26.367 A 130.457 130.457 0 0 0 281.425 28.145 Q 281.081 30.812 281.081 31.934 A 1.173 1.173 0 0 0 281.088 32.064 Q 281.103 32.195 281.15 32.26 A 0.149 0.149 0 0 0 281.277 32.324 A 0.153 0.153 0 0 0 281.334 32.311 Q 281.425 32.273 281.57 32.129 A 16.943 16.943 0 0 1 283.14 30.629 Q 284.872 29.158 287.492 27.542 A 55.709 55.709 0 0 1 287.575 27.49 Q 291.628 25 294.753 25 A 20.24 20.24 0 0 1 297.084 25.127 Q 298.254 25.263 299.252 25.544 A 10.633 10.633 0 0 1 300.124 25.83 A 10.332 10.332 0 0 1 302.294 26.942 A 8.563 8.563 0 0 1 303.738 28.174 A 8.332 8.332 0 0 1 304.931 29.84 Q 305.531 30.923 305.959 32.324 A 27.074 27.074 0 0 1 306.796 35.995 A 32.996 32.996 0 0 1 307.058 38.086 A 59.114 59.114 0 0 1 307.236 40.622 Q 307.351 42.896 307.351 45.703 Z M 202.761 30.664 L 213.113 57.031 A 1836.186 1836.186 0 0 1 216.669 47.826 Q 218.077 44.213 219.361 40.973 A 940.272 940.272 0 0 1 221.804 34.863 A 7.76 7.76 0 0 0 222.353 32.574 A 9.372 9.372 0 0 0 222.39 31.738 A 2.323 2.323 0 0 0 221.474 29.867 A 3.927 3.927 0 0 0 220.827 29.443 A 6.382 6.382 0 0 0 219.335 28.891 Q 218.622 28.717 217.781 28.652 A 13.697 13.697 0 0 0 216.726 28.613 A 0.21 0.21 0 0 1 216.548 28.497 Q 216.384 28.237 216.384 27.393 A 6.918 6.918 0 0 1 216.4 26.898 Q 216.458 26.096 216.719 25.789 A 0.68 0.68 0 0 1 216.726 25.781 Q 219.53 26.155 223.192 26.243 A 97.204 97.204 0 0 0 225.515 26.27 A 58.089 58.089 0 0 0 228.21 26.202 Q 230.657 26.087 233.718 25.781 A 0.953 0.953 0 0 1 233.833 26.035 Q 233.976 26.507 233.865 27.417 Q 233.724 28.568 233.447 28.612 A 0.141 0.141 0 0 1 233.425 28.613 A 5.538 5.538 0 0 0 232.553 28.69 Q 231.654 28.834 230.474 29.251 A 20.538 20.538 0 0 0 230.08 29.395 A 5.727 5.727 0 0 0 228.713 30.118 A 4.225 4.225 0 0 0 227.273 31.934 Q 217.65 54.866 213.328 65.459 A 912.594 912.594 0 0 0 212.624 67.187 Q 212.136 68.359 210.525 72.656 Q 209.083 76.5 207.955 79.015 A 53.836 53.836 0 0 1 207.693 79.59 A 33.943 33.943 0 0 1 204.861 84.57 A 17.216 17.216 0 0 1 202.688 87.214 Q 199.804 90.039 196.365 90.039 A 6.217 6.217 0 0 1 194.709 89.838 Q 192.815 89.314 192.305 87.422 A 6.083 6.083 0 0 1 192.117 85.84 A 3.744 3.744 0 0 1 192.485 84.252 Q 192.719 83.747 193.103 83.241 A 7.119 7.119 0 0 1 193.288 83.008 A 25.962 25.962 0 0 0 195.563 82.915 Q 197.804 82.717 199.291 82.099 A 7.513 7.513 0 0 0 199.392 82.056 A 6.95 6.95 0 0 0 200.818 81.196 Q 202.444 79.959 204.324 77.441 A 10.536 10.536 0 0 0 204.877 76.611 Q 205.77 75.146 207.033 72.363 A 151.284 151.284 0 0 0 207.616 71.064 Q 208.488 69.094 208.838 68.113 A 7.611 7.611 0 0 0 209.011 67.578 A 1545.729 1545.729 0 0 0 204.391 55.927 Q 199.897 44.735 196.519 36.945 A 323.793 323.793 0 0 0 193.679 30.566 Q 192.751 28.613 188.308 28.613 A 0.071 0.071 0 0 1 188.254 28.558 Q 188.179 28.383 188.165 27.654 A 19.303 19.303 0 0 1 188.161 27.271 Q 188.161 25.928 188.308 25.781 A 90.108 90.108 0 0 0 195.541 26.239 A 103.889 103.889 0 0 0 198.074 26.27 A 111.096 111.096 0 0 0 202.079 26.201 Q 205.245 26.086 207.839 25.781 Q 208.011 26.168 207.937 27.14 A 10.734 10.734 0 0 1 207.912 27.417 Q 207.823 28.29 207.617 28.526 A 0.222 0.222 0 0 1 207.449 28.613 A 10.675 10.675 0 0 0 206.951 28.626 Q 206.711 28.637 206.439 28.658 A 23.899 23.899 0 0 0 205.862 28.711 A 7.231 7.231 0 0 0 204.867 28.888 Q 204.348 29.016 203.786 29.224 Q 202.975 29.523 202.75 29.938 A 0.693 0.693 0 0 0 202.663 30.273 A 0.831 0.831 0 0 0 202.721 30.573 A 1.021 1.021 0 0 0 202.761 30.664 Z M 554.714 57.617 L 554.714 36.523 A 29.254 29.254 0 0 0 554.666 34.778 Q 554.569 33.167 554.278 32.14 A 4.522 4.522 0 0 0 553.933 31.25 A 2.995 2.995 0 0 0 552.633 30.046 Q 551.507 29.464 549.613 29.334 A 16.863 16.863 0 0 0 548.464 29.297 A 0.566 0.566 0 0 1 548.351 29.121 Q 548.214 28.804 548.196 28.101 A 5.636 5.636 0 0 1 548.194 27.975 Q 548.191 27.249 548.389 26.877 A 0.909 0.909 0 0 1 548.464 26.758 A 72.912 72.912 0 0 0 554.099 26.346 Q 558.486 25.842 561.843 24.805 A 0.325 0.325 0 0 1 562.045 24.886 Q 562.251 25.051 562.466 25.548 A 5.571 5.571 0 0 1 562.551 25.757 A 10.442 10.442 0 0 1 562.711 26.201 Q 562.917 26.819 562.917 27.148 A 3.899 3.899 0 0 0 562.638 27.971 Q 562.302 29.378 562.245 32.266 A 62.78 62.78 0 0 0 562.234 33.496 L 562.234 37.988 L 562.234 54.004 Q 562.234 57.765 562.77 60.684 A 24.727 24.727 0 0 0 562.917 61.426 Q 563.03 61.915 563.608 62.259 A 3.094 3.094 0 0 0 563.992 62.451 A 7.182 7.182 0 0 0 565.871 62.964 A 25.504 25.504 0 0 0 567.614 63.128 A 23.319 23.319 0 0 0 567.727 63.135 A 518.575 518.575 0 0 0 567.939 63.146 Q 568.636 63.184 568.679 63.184 A 0.351 0.351 0 0 1 568.824 63.334 Q 568.972 63.598 568.972 64.258 A 1.094 1.094 0 0 1 568.955 64.438 Q 568.907 64.719 568.728 65.186 Q 568.484 65.82 568.191 65.82 A 29.342 29.342 0 0 0 566.872 65.943 Q 566.198 66.02 565.45 66.132 A 51.364 51.364 0 0 0 564.944 66.211 A 45.376 45.376 0 0 0 562.75 66.615 A 37.514 37.514 0 0 0 561.526 66.895 A 92.058 92.058 0 0 0 559.994 67.285 A 74.723 74.723 0 0 0 558.572 67.676 Q 557.349 68.025 556.516 68.257 A 174.038 174.038 0 0 1 556.325 68.311 L 555.495 68.555 A 0.469 0.469 0 0 1 555.169 68.419 Q 555.038 68.297 554.934 68.066 Q 554.714 67.578 554.714 66.992 L 554.714 62.5 L 554.519 62.012 A 16.769 16.769 0 0 1 552.255 64 Q 551.07 64.877 549.607 65.697 A 33.175 33.175 0 0 1 548.22 66.431 A 21.74 21.74 0 0 1 545.016 67.743 Q 543.175 68.32 541.458 68.431 A 12.542 12.542 0 0 1 540.652 68.457 A 11.826 11.826 0 0 1 537.877 68.145 A 9.444 9.444 0 0 1 535.427 67.187 A 11.223 11.223 0 0 1 533.201 65.558 A 9.483 9.483 0 0 1 531.887 64.014 Q 530.603 62.124 529.799 59.416 A 22.992 22.992 0 0 1 529.787 59.375 A 33.362 33.362 0 0 1 529.051 56.399 A 26.272 26.272 0 0 1 528.713 54.224 A 43.748 43.748 0 0 1 528.482 51.059 A 53.547 53.547 0 0 1 528.445 49.023 L 528.445 36.523 A 29.254 29.254 0 0 0 528.397 34.778 Q 528.3 33.167 528.008 32.14 A 4.522 4.522 0 0 0 527.663 31.25 A 2.995 2.995 0 0 0 526.364 30.046 Q 525.238 29.464 523.343 29.334 A 16.863 16.863 0 0 0 522.195 29.297 A 0.566 0.566 0 0 1 522.082 29.121 Q 521.944 28.804 521.926 28.101 A 5.636 5.636 0 0 1 521.924 27.975 Q 521.922 27.249 522.119 26.877 A 0.909 0.909 0 0 1 522.195 26.758 A 72.912 72.912 0 0 0 527.83 26.346 Q 532.217 25.842 535.574 24.805 Q 535.905 24.805 536.258 25.514 A 4.418 4.418 0 0 1 536.282 25.562 Q 536.589 26.198 536.638 26.609 A 1.255 1.255 0 0 1 536.648 26.758 Q 536.085 27.884 535.985 31.725 A 68.755 68.755 0 0 0 535.964 33.496 L 535.964 37.695 L 535.964 47.852 A 41.419 41.419 0 0 0 536.147 51.892 Q 536.619 56.687 538.308 59.326 Q 540.652 62.988 545.73 62.988 A 11.397 11.397 0 0 0 551.19 61.575 A 13.791 13.791 0 0 0 551.833 61.206 Q 554.715 59.453 554.715 57.676 A 2.192 2.192 0 0 0 554.714 57.617 Z M 14.577 68.75 L 14.577 78.223 Q 14.577 82.86 14.905 84.748 A 5.612 5.612 0 0 0 15.066 85.449 A 0.725 0.725 0 0 0 15.322 85.8 Q 15.873 86.251 17.532 86.572 Q 19.802 87.012 21.218 87.012 Q 21.455 87.327 21.516 88.057 A 6.187 6.187 0 0 1 21.535 88.428 Q 21.556 89.281 21.323 89.694 A 0.887 0.887 0 0 1 21.218 89.844 A 7794.299 7794.299 0 0 0 18.865 89.729 Q 12.278 89.41 11.037 89.363 A 9.887 9.887 0 0 0 10.769 89.355 A 73.536 73.536 0 0 0 8.274 89.397 A 65.871 65.871 0 0 0 7.473 89.429 A 117.409 117.409 0 0 0 5.996 89.507 Q 5.241 89.551 4.403 89.609 A 201.324 201.324 0 0 0 3.835 89.648 A 152.604 152.604 0 0 1 2.853 89.716 Q 1.443 89.807 0.417 89.844 Q 0.077 89.455 0.1 88.436 A 5.934 5.934 0 0 1 0.1 88.428 A 5.847 5.847 0 0 1 0.129 87.955 Q 0.198 87.305 0.417 87.012 A 11.975 11.975 0 0 0 1.386 86.969 Q 2.466 86.881 3.898 86.611 A 38.677 38.677 0 0 0 4.104 86.572 Q 5.934 86.218 6.416 85.705 A 0.63 0.63 0 0 0 6.57 85.449 Q 6.96 84.229 7.058 78.223 L 7.058 38.281 A 49.15 49.15 0 0 0 7.035 36.703 Q 6.965 34.554 6.69 33.559 A 3.038 3.038 0 0 0 6.57 33.203 A 1.224 1.224 0 0 0 6.23 32.744 Q 5.879 32.435 5.228 32.196 A 6.951 6.951 0 0 0 4.714 32.031 Q 3.152 31.592 2.102 31.519 A 32.864 32.864 0 0 0 1.166 31.466 Q 0.663 31.445 0.222 31.445 A 0.408 0.408 0 0 1 0.14 31.311 Q 0.043 31.074 0.012 30.532 A 8.438 8.438 0 0 1 0.002 30.273 A 7.063 7.063 0 0 1 0 30.143 Q -0.006 29.27 0.222 28.906 Q 8.572 27.783 14.187 24.805 A 0.481 0.481 0 0 1 14.436 24.88 Q 14.66 25.015 14.895 25.391 Q 15.222 25.914 15.257 26.282 A 0.905 0.905 0 0 1 15.261 26.367 Q 15.261 26.416 14.919 28.149 A 53.376 53.376 0 0 0 14.803 28.756 Q 14.633 29.674 14.591 30.126 A 2.742 2.742 0 0 0 14.577 30.371 A 1.173 1.173 0 0 0 14.584 30.501 Q 14.599 30.632 14.646 30.697 A 0.149 0.149 0 0 0 14.773 30.762 A 0.153 0.153 0 0 0 14.831 30.748 Q 14.922 30.711 15.066 30.566 A 24.472 24.472 0 0 1 17.303 28.885 Q 18.492 28.089 19.894 27.318 A 43.079 43.079 0 0 1 20.852 26.807 Q 23.256 25.562 25.255 25.175 A 9.072 9.072 0 0 1 26.98 25 A 16.535 16.535 0 0 1 32.519 25.912 A 15.299 15.299 0 0 1 34.792 26.929 A 16.424 16.424 0 0 1 38.786 29.954 A 14.888 14.888 0 0 1 40.383 31.934 Q 42.458 35.01 43.557 38.428 A 22.784 22.784 0 0 1 44.548 43.058 A 19.989 19.989 0 0 1 44.656 45.117 Q 44.656 49.707 42.629 54.077 A 25.703 25.703 0 0 1 38.558 60.36 A 23.81 23.81 0 0 1 37.38 61.597 A 26.055 26.055 0 0 1 30.032 66.65 A 20.807 20.807 0 0 1 25.012 68.264 A 17.984 17.984 0 0 1 21.804 68.555 A 22.691 22.691 0 0 1 14.968 67.48 A 1.723 1.723 0 0 0 14.638 68.179 Q 14.581 68.425 14.578 68.712 A 3.081 3.081 0 0 0 14.577 68.75 Z M 605.154 23.926 L 605.154 13.281 A 49.15 49.15 0 0 0 605.13 11.703 Q 605.061 9.554 604.785 8.559 A 3.038 3.038 0 0 0 604.665 8.203 A 1.937 1.937 0 0 0 603.802 7.295 Q 602.502 6.539 599.483 6.456 A 28.087 28.087 0 0 0 598.708 6.445 A 0.028 0.028 0 0 1 598.69 6.424 Q 598.651 6.331 598.611 5.841 A 15.352 15.352 0 0 1 598.611 5.835 A 10.338 10.338 0 0 1 598.578 5.01 A 10.94 10.94 0 0 1 598.586 4.59 A 3.195 3.195 0 0 1 598.601 4.373 Q 598.647 3.946 598.806 3.906 A 41.27 41.27 0 0 0 607.6 1.988 A 51.772 51.772 0 0 0 612.673 0 A 0.541 0.541 0 0 1 612.938 0.075 Q 613.117 0.175 613.302 0.407 A 2.55 2.55 0 0 1 613.381 0.513 A 2.114 2.114 0 0 1 613.631 0.966 A 1.617 1.617 0 0 1 613.747 1.562 A 16.461 16.461 0 0 0 613.136 3.976 Q 612.68 6.494 612.673 9.949 A 53.247 53.247 0 0 0 612.673 10.059 L 612.673 51.855 Q 612.673 59.675 613.333 61.368 A 2.141 2.141 0 0 0 613.357 61.426 A 1.557 1.557 0 0 0 613.717 61.885 Q 614.041 62.177 614.577 62.402 Q 615.505 62.793 616.433 62.915 Q 617.361 63.037 618.215 63.11 Q 618.989 63.177 619.102 63.183 A 0.351 0.351 0 0 0 619.118 63.184 Q 619.376 63.312 619.407 64.118 A 6.105 6.105 0 0 1 619.411 64.355 Q 619.411 64.59 619.255 65.012 A 5.987 5.987 0 0 1 619.167 65.234 A 2.298 2.298 0 0 1 619.066 65.448 Q 618.949 65.663 618.821 65.754 A 0.326 0.326 0 0 1 618.63 65.82 A 29.342 29.342 0 0 0 617.312 65.943 Q 616.638 66.02 615.89 66.132 A 51.364 51.364 0 0 0 615.383 66.211 A 45.376 45.376 0 0 0 613.19 66.615 A 37.514 37.514 0 0 0 611.965 66.895 A 92.058 92.058 0 0 0 610.433 67.285 A 74.723 74.723 0 0 0 609.011 67.676 Q 607.758 68.047 606.902 68.286 A 73.624 73.624 0 0 1 606.814 68.311 L 605.935 68.555 Q 605.173 68.555 605.154 66.789 A 8.492 8.492 0 0 1 605.154 66.699 L 605.154 63.281 Q 605.063 62.692 604.888 62.692 A 0.113 0.113 0 0 0 604.861 62.695 Q 603.74 63.89 601.021 65.428 A 49.843 49.843 0 0 1 599.197 66.406 Q 594.997 68.555 591.872 68.555 A 14.46 14.46 0 0 1 582.291 64.918 A 21.188 21.188 0 0 1 579.861 62.476 A 21.583 21.583 0 0 1 574.766 49.8 A 27.933 27.933 0 0 1 574.685 47.656 A 17.793 17.793 0 0 1 576.388 40.132 A 21.491 21.491 0 0 1 577.077 38.77 A 25.692 25.692 0 0 1 581.21 33.15 A 23.322 23.322 0 0 1 583.01 31.494 A 32.403 32.403 0 0 1 590.578 26.782 A 24.005 24.005 0 0 1 593.676 25.645 Q 595.331 25.171 596.848 25.046 A 13.054 13.054 0 0 1 597.927 25 A 16.343 16.343 0 0 1 599.026 25.04 Q 599.595 25.079 600.248 25.154 A 38.954 38.954 0 0 1 601.638 25.342 A 47.393 47.393 0 0 1 602.61 25.499 Q 604.067 25.752 604.665 25.977 A 0.279 0.279 0 0 0 604.9 25.817 Q 605.135 25.434 605.152 24.135 A 15.912 15.912 0 0 0 605.154 23.926 Z M 478.64 25.659 A 49.179 49.179 0 0 0 476.944 25.393 Q 474.813 25.098 473.22 25.098 Q 467.556 25.098 463.308 28.442 A 13.364 13.364 0 0 0 462.429 29.197 A 10.289 10.289 0 0 0 459.06 37.012 A 11.682 11.682 0 0 0 459.13 38.31 A 8.907 8.907 0 0 0 461.062 43.042 A 14.243 14.243 0 0 0 461.131 43.126 Q 462.204 44.428 463.675 45.586 A 22.891 22.891 0 0 0 466.482 47.461 A 16.251 16.251 0 0 0 466.56 47.509 Q 467.325 47.976 468.734 48.729 A 122.261 122.261 0 0 0 469.802 49.292 Q 471.523 50.189 472.585 50.812 A 23.184 23.184 0 0 1 473.22 51.196 Q 473.922 51.639 474.738 52.262 A 33.615 33.615 0 0 1 475.759 53.076 A 8.576 8.576 0 0 1 476.844 54.139 A 6.205 6.205 0 0 1 477.785 55.615 A 6.748 6.748 0 0 1 478.213 56.924 A 8.234 8.234 0 0 1 478.396 58.691 A 9.1 9.1 0 0 1 478.235 60.444 A 6.206 6.206 0 0 1 476.418 63.843 A 6.57 6.57 0 0 1 473.765 65.388 A 8.23 8.23 0 0 1 471.365 65.723 A 8.53 8.53 0 0 1 467.247 64.671 A 11.17 11.17 0 0 1 464.773 62.817 A 17.213 17.213 0 0 1 463.107 60.947 A 13.347 13.347 0 0 1 460.818 56.445 A 0.789 0.789 0 0 0 460.783 56.423 Q 460.578 56.302 460.245 56.265 A 2.834 2.834 0 0 0 459.939 56.25 Q 458.962 56.25 458.181 56.836 Q 458.181 58.179 458.435 60.179 A 60.083 60.083 0 0 0 458.718 62.134 A 55.578 55.578 0 0 0 458.979 63.635 Q 459.396 65.842 459.841 66.992 A 44.02 44.02 0 0 1 460.514 67.123 Q 461.315 67.284 462.382 67.523 A 160.57 160.57 0 0 1 463.479 67.773 A 79.644 79.644 0 0 0 464.534 68.01 Q 465.386 68.196 466.149 68.34 A 42.446 42.446 0 0 0 467.532 68.579 A 21.595 21.595 0 0 0 468.873 68.743 A 26.332 26.332 0 0 0 471.267 68.848 Q 477.37 68.848 481.838 65.015 A 15.089 15.089 0 0 0 482.509 64.404 A 12.081 12.081 0 0 0 486.306 55.371 A 9.347 9.347 0 0 0 486.305 55.213 A 8.372 8.372 0 0 0 485.964 52.954 A 6.224 6.224 0 0 0 485.667 52.159 A 7.169 7.169 0 0 0 484.817 50.757 Q 484.011 49.707 483.327 48.95 A 7.001 7.001 0 0 0 482.77 48.404 Q 482.175 47.878 481.301 47.29 Q 479.958 46.387 479.25 45.923 A 15.621 15.621 0 0 0 479.224 45.906 Q 478.695 45.561 477.735 44.994 A 109.76 109.76 0 0 0 477.029 44.58 A 15.609 15.609 0 0 0 477.026 44.579 Q 475.845 43.893 475.319 43.594 A 30.933 30.933 0 0 0 475.075 43.457 Q 474.634 43.199 473.665 42.65 A 497.269 497.269 0 0 0 472.976 42.261 A 107.914 107.914 0 0 1 472.742 42.128 Q 471.416 41.375 470.876 41.016 A 11.475 11.475 0 0 1 470.656 40.865 Q 470.106 40.479 469.241 39.795 A 13.41 13.41 0 0 1 469.197 39.76 Q 468.534 39.232 468.12 38.763 A 4.03 4.03 0 0 1 467.751 38.281 A 5.657 5.657 0 0 1 467.566 37.971 Q 467.392 37.658 467.231 37.284 A 11.035 11.035 0 0 1 466.946 36.548 Q 466.579 35.498 466.579 34.277 A 7.805 7.805 0 0 1 466.611 33.569 A 5.713 5.713 0 0 1 468.362 29.834 Q 469.573 28.672 471.517 28.3 A 10.63 10.63 0 0 1 473.513 28.125 A 5.351 5.351 0 0 1 474.819 28.285 Q 476.034 28.589 477.13 29.475 A 9.374 9.374 0 0 1 478.591 30.981 A 19.451 19.451 0 0 1 479 31.521 A 16.799 16.799 0 0 1 481.716 37.109 A 1.809 1.809 0 0 0 482.112 37.358 Q 482.39 37.488 482.738 37.548 A 3.804 3.804 0 0 0 483.376 37.598 Q 484.353 37.598 484.353 37.109 A 86.05 86.05 0 0 0 484.218 34.241 Q 483.929 29.732 483.181 26.367 A 20.586 20.586 0 0 1 482.96 26.341 Q 481.608 26.176 478.64 25.659 Z M 66.14 41.406 L 66.14 56.445 Q 66.14 61.083 66.467 62.971 A 5.612 5.612 0 0 0 66.628 63.672 A 0.599 0.599 0 0 0 66.887 63.979 Q 67.534 64.424 69.719 64.745 A 30.526 30.526 0 0 0 70.071 64.795 Q 72.741 65.156 74.371 65.221 A 16.731 16.731 0 0 0 75.027 65.234 Q 75.263 65.55 75.325 66.28 A 6.187 6.187 0 0 1 75.344 66.65 Q 75.364 67.503 75.131 67.917 A 0.887 0.887 0 0 1 75.027 68.066 A 1556.001 1556.001 0 0 0 71.551 67.9 Q 64.623 67.578 62.917 67.578 Q 61.99 67.578 51.98 68.066 Q 51.639 67.677 51.662 66.659 A 5.934 5.934 0 0 1 51.662 66.65 A 5.847 5.847 0 0 1 51.691 66.177 Q 51.76 65.527 51.98 65.234 A 11.975 11.975 0 0 0 52.948 65.191 Q 54.028 65.103 55.461 64.834 A 38.677 38.677 0 0 0 55.666 64.795 Q 57.497 64.441 57.978 63.928 A 0.63 0.63 0 0 0 58.132 63.672 Q 58.523 62.451 58.62 56.445 L 58.62 38.281 A 49.15 49.15 0 0 0 58.597 36.703 Q 58.528 34.554 58.252 33.559 A 3.038 3.038 0 0 0 58.132 33.203 A 1.224 1.224 0 0 0 57.792 32.744 Q 57.442 32.435 56.79 32.196 A 6.951 6.951 0 0 0 56.277 32.031 Q 54.714 31.592 53.664 31.519 A 32.864 32.864 0 0 0 52.728 31.466 Q 52.225 31.445 51.784 31.445 A 0.408 0.408 0 0 1 51.702 31.311 Q 51.605 31.074 51.575 30.532 A 8.438 8.438 0 0 1 51.565 30.273 A 7.063 7.063 0 0 1 51.563 30.143 Q 51.557 29.27 51.784 28.906 Q 60.134 27.783 65.749 24.805 A 0.481 0.481 0 0 1 65.998 24.88 Q 66.223 25.015 66.457 25.391 Q 66.784 25.914 66.819 26.282 A 0.905 0.905 0 0 1 66.824 26.367 Q 66.726 26.953 66.433 30.786 Q 66.172 34.204 66.143 35.157 A 6.744 6.744 0 0 0 66.14 35.352 A 0.609 0.609 0 0 0 66.147 35.445 Q 66.154 35.493 66.169 35.53 A 0.213 0.213 0 0 0 66.238 35.62 A 0.378 0.378 0 0 0 66.28 35.648 Q 66.329 35.675 66.37 35.675 A 0.12 0.12 0 0 0 66.408 35.669 Q 66.469 35.649 66.513 35.578 A 0.384 0.384 0 0 0 66.531 35.547 A 21.592 21.592 0 0 1 68.934 31.571 A 29.179 29.179 0 0 1 71.609 28.516 Q 73.603 26.522 75.463 25.691 A 6.332 6.332 0 0 1 78.054 25.098 Q 79.958 25.098 81.643 25.928 Q 83.327 26.758 84.011 27.93 A 7.49 7.49 0 0 1 84.337 29.422 A 9.749 9.749 0 0 1 84.402 30.566 A 8.238 8.238 0 0 1 84.281 32.024 Q 84.134 32.841 83.808 33.491 A 4.173 4.173 0 0 1 83.279 34.302 Q 82.156 35.645 81.179 35.645 A 2.738 2.738 0 0 1 79.983 35.376 A 5.724 5.724 0 0 1 79.603 35.175 Q 79.217 34.953 78.729 34.612 A 19.238 19.238 0 0 1 78.567 34.497 Q 77.712 33.887 77.566 33.789 A 7.282 7.282 0 0 0 75.84 32.929 A 5.91 5.91 0 0 0 73.952 32.617 A 5.112 5.112 0 0 0 71.164 33.48 Q 69.856 34.316 68.63 35.962 A 22.017 22.017 0 0 0 67.541 37.556 Q 66.528 39.202 66.247 40.481 A 4.329 4.329 0 0 0 66.14 41.406 Z M 378.786 31.385 A 8.086 8.086 0 0 0 378.884 30.078 A 3.13 3.13 0 0 0 378.876 29.858 Q 378.834 29.259 378.567 28.54 Q 378.249 27.686 377.908 27.344 A 12.245 12.245 0 0 0 377.573 27.129 Q 374.144 25 369.118 25 A 18.146 18.146 0 0 0 366.583 25.181 A 21.725 21.725 0 0 0 362.746 26.099 Q 359.45 27.197 356.374 29.321 A 29.688 29.688 0 0 0 350.832 34.277 A 20.79 20.79 0 0 0 349.505 35.972 A 23.32 23.32 0 0 0 346.877 40.918 Q 345.388 44.727 345.388 48.828 Q 345.388 53.955 347.805 58.423 A 18.735 18.735 0 0 0 349.336 60.807 A 19.803 19.803 0 0 0 354.812 65.723 A 18.783 18.783 0 0 0 357.636 67.155 A 19.756 19.756 0 0 0 365.115 68.555 Q 367.8 68.555 370.266 67.676 A 17.526 17.526 0 0 0 372.153 66.881 A 13.644 13.644 0 0 0 374.49 65.43 A 33.385 33.385 0 0 0 374.972 65.047 Q 375.679 64.476 376.282 63.923 A 19.532 19.532 0 0 0 377.419 62.793 A 19.019 19.019 0 0 0 378.275 61.801 A 15.211 15.211 0 0 0 379.372 60.254 A 5.609 5.609 0 0 0 379.607 59.823 Q 379.767 59.494 379.854 59.19 A 2.523 2.523 0 0 0 379.958 58.496 A 1.396 1.396 0 0 0 379.926 58.197 A 1.646 1.646 0 0 0 379.787 57.813 Q 379.617 57.471 379.421 57.3 A 3.881 3.881 0 0 0 379.399 57.28 Q 379.261 57.162 379.203 57.136 A 0.068 0.068 0 0 0 379.177 57.129 A 11.959 11.959 0 0 1 378.64 57.712 Q 377.912 58.452 376.975 59.165 A 22.481 22.481 0 0 1 375.002 60.498 A 10.747 10.747 0 0 1 372.224 61.681 A 12.985 12.985 0 0 1 368.825 62.109 A 20.856 20.856 0 0 1 365.793 61.896 A 15.11 15.11 0 0 1 357.424 57.959 A 12.341 12.341 0 0 1 355.233 55.211 Q 353.986 53.094 353.437 50.337 A 24.257 24.257 0 0 1 353.005 45.605 A 29.946 29.946 0 0 1 353.029 44.389 Q 353.135 41.797 353.697 39.579 A 16.163 16.163 0 0 1 356.374 33.813 Q 357.743 31.979 359.249 30.889 A 7.865 7.865 0 0 1 363.943 29.297 A 17.759 17.759 0 0 1 363.98 29.297 Q 365.76 29.301 366.799 29.663 Q 367.537 29.921 368.577 30.552 A 22.76 22.76 0 0 1 369.509 31.152 A 5.057 5.057 0 0 1 369.823 31.372 Q 370.159 31.624 370.631 32.036 A 32.298 32.298 0 0 1 371.145 32.495 Q 371.728 33.027 372.278 33.455 A 13.501 13.501 0 0 0 373.22 34.131 Q 374.197 34.766 375.173 34.766 Q 376.638 34.766 377.761 33.618 A 3.389 3.389 0 0 0 378.432 32.612 Q 378.673 32.07 378.786 31.385 Z M 96.267 43.555 A 32.907 32.907 0 0 0 96.259 44.274 Q 96.259 51.042 99.123 55.412 A 14.464 14.464 0 0 0 100.686 57.397 A 15.069 15.069 0 0 0 111.65 62.297 A 18.954 18.954 0 0 0 112.185 62.305 Q 115.7 62.305 118.557 60.596 A 25.051 25.051 0 0 0 120.474 59.334 Q 121.362 58.685 122.06 58.029 A 11.81 11.81 0 0 0 122.927 57.129 A 0.068 0.068 0 0 1 122.953 57.136 Q 123.011 57.162 123.149 57.28 A 3.881 3.881 0 0 1 123.171 57.3 Q 123.367 57.471 123.537 57.812 A 1.646 1.646 0 0 1 123.676 58.197 A 1.396 1.396 0 0 1 123.708 58.496 A 2.523 2.523 0 0 1 123.604 59.19 Q 123.517 59.494 123.357 59.823 A 5.609 5.609 0 0 1 123.122 60.254 A 15.211 15.211 0 0 1 122.025 61.801 A 19.019 19.019 0 0 1 121.169 62.793 A 19.532 19.532 0 0 1 120.032 63.923 Q 119.429 64.476 118.722 65.047 A 33.385 33.385 0 0 1 118.24 65.43 A 13.644 13.644 0 0 1 115.903 66.881 A 17.526 17.526 0 0 1 114.016 67.676 Q 111.55 68.555 108.865 68.555 A 20.618 20.618 0 0 1 101.859 67.407 A 17.966 17.966 0 0 1 94.826 62.769 A 19.822 19.822 0 0 1 89.404 50.184 A 26.305 26.305 0 0 1 89.333 48.242 A 23.79 23.79 0 0 1 91.14 39.111 A 27.428 27.428 0 0 1 93.408 34.714 A 22.063 22.063 0 0 1 95.73 31.689 A 23.629 23.629 0 0 1 101.243 27.215 A 22.221 22.221 0 0 1 101.931 26.831 Q 105.349 25 108.572 25 A 18.553 18.553 0 0 1 112.013 25.307 A 14.931 14.931 0 0 1 114.577 26.025 Q 117.263 27.051 118.825 28.54 A 13.501 13.501 0 0 1 121.413 31.934 A 19.837 19.837 0 0 1 122.142 33.424 Q 122.597 34.473 122.829 35.4 A 13.922 13.922 0 0 1 123.121 36.891 A 10.287 10.287 0 0 1 123.22 38.281 Q 123.22 40.527 122.707 41.675 A 2.071 2.071 0 0 1 122.203 42.387 Q 121.814 42.734 121.243 42.834 A 2.732 2.732 0 0 1 120.876 42.871 Q 119.163 42.996 111.104 43.211 A 1976.361 1976.361 0 0 1 108.205 43.286 A 6013.116 6013.116 0 0 1 105.685 43.349 Q 97.912 43.541 96.439 43.554 A 21.015 21.015 0 0 1 96.267 43.555 Z M 393.728 43.555 A 32.907 32.907 0 0 0 393.72 44.274 Q 393.72 51.042 396.583 55.412 A 14.464 14.464 0 0 0 398.147 57.397 A 15.069 15.069 0 0 0 409.111 62.297 A 18.954 18.954 0 0 0 409.646 62.305 Q 413.161 62.305 416.018 60.596 A 25.051 25.051 0 0 0 417.935 59.334 Q 418.823 58.685 419.521 58.029 A 11.81 11.81 0 0 0 420.388 57.129 A 0.068 0.068 0 0 1 420.414 57.136 Q 420.472 57.162 420.61 57.28 A 3.881 3.881 0 0 1 420.632 57.3 Q 420.827 57.471 420.998 57.812 A 1.646 1.646 0 0 1 421.137 58.197 A 1.396 1.396 0 0 1 421.169 58.496 A 2.523 2.523 0 0 1 421.065 59.19 Q 420.978 59.494 420.818 59.823 A 5.609 5.609 0 0 1 420.583 60.254 A 15.211 15.211 0 0 1 419.486 61.801 A 19.019 19.019 0 0 1 418.63 62.793 A 19.532 19.532 0 0 1 417.493 63.923 Q 416.89 64.476 416.183 65.047 A 33.385 33.385 0 0 1 415.7 65.43 A 13.644 13.644 0 0 1 413.363 66.881 A 17.526 17.526 0 0 1 411.477 67.676 Q 409.011 68.555 406.325 68.555 A 20.618 20.618 0 0 1 399.32 67.407 A 17.966 17.966 0 0 1 392.287 62.769 A 19.822 19.822 0 0 1 386.865 50.184 A 26.305 26.305 0 0 1 386.794 48.242 A 23.79 23.79 0 0 1 388.601 39.111 A 27.428 27.428 0 0 1 390.869 34.714 A 22.063 22.063 0 0 1 393.191 31.689 A 23.629 23.629 0 0 1 398.704 27.215 A 22.221 22.221 0 0 1 399.392 26.831 Q 402.81 25 406.033 25 A 18.553 18.553 0 0 1 409.474 25.307 A 14.931 14.931 0 0 1 412.038 26.025 Q 414.724 27.051 416.286 28.54 A 13.501 13.501 0 0 1 418.874 31.934 A 19.837 19.837 0 0 1 419.603 33.424 Q 420.058 34.473 420.29 35.4 A 13.922 13.922 0 0 1 420.582 36.891 A 10.287 10.287 0 0 1 420.681 38.281 Q 420.681 40.527 420.168 41.675 A 2.071 2.071 0 0 1 419.664 42.387 Q 419.275 42.734 418.704 42.834 A 2.732 2.732 0 0 1 418.337 42.871 Q 416.624 42.996 408.565 43.211 A 1976.361 1976.361 0 0 1 405.666 43.286 A 6013.116 6013.116 0 0 1 403.146 43.349 Q 395.373 43.541 393.9 43.554 A 21.015 21.015 0 0 1 393.728 43.555 Z M 143.044 12.793 L 143.044 25.586 L 155.642 25.586 Q 156.051 25.586 156.117 26.339 A 3.668 3.668 0 0 1 156.13 26.66 A 3.655 3.655 0 0 1 155.541 28.627 A 5.482 5.482 0 0 1 154.763 29.59 L 143.044 29.59 L 143.044 55.176 A 14.608 14.608 0 0 0 143.31 58.099 Q 144.23 62.581 148.33 63.112 A 9.03 9.03 0 0 0 149.49 63.184 A 9.817 9.817 0 0 0 153.677 62.216 A 13.469 13.469 0 0 0 155.837 60.938 Q 156.126 61.082 156.13 61.604 A 1.93 1.93 0 0 1 156.13 61.621 A 4.622 4.622 0 0 1 156.106 62.115 Q 156.033 62.793 155.74 63.086 A 26.078 26.078 0 0 1 154.151 64.684 A 29.96 29.96 0 0 1 153.567 65.21 Q 152.37 66.26 150.124 67.358 A 11.12 11.12 0 0 1 147.752 68.216 A 9.139 9.139 0 0 1 145.681 68.457 A 14.421 14.421 0 0 1 143.293 68.266 A 12.1 12.1 0 0 1 141.97 67.969 A 9.948 9.948 0 0 1 138.866 66.444 A 11.272 11.272 0 0 1 138.747 66.357 A 6.447 6.447 0 0 1 137.182 64.662 A 9.021 9.021 0 0 1 136.379 63.086 Q 135.624 61.187 135.536 58.602 A 20.392 20.392 0 0 1 135.525 57.91 L 135.525 29.59 L 129.861 29.59 Q 129.406 29.59 129.375 28.828 A 2.849 2.849 0 0 1 129.372 28.711 A 0.342 0.342 0 0 1 129.413 28.577 Q 129.553 28.286 130.165 27.553 A 27.9 27.9 0 0 1 130.447 27.222 A 106.068 106.068 0 0 1 130.884 26.718 Q 131.479 26.036 131.791 25.709 A 7.364 7.364 0 0 1 131.911 25.586 L 135.525 25.586 L 135.525 19.434 Q 136.306 18.506 137.771 16.919 A 1450.242 1450.242 0 0 0 138.815 15.787 Q 139.638 14.893 140.31 14.16 Q 141.384 12.988 141.482 12.891 A 1.293 1.293 0 0 1 141.975 12.585 A 1.58 1.58 0 0 1 142.092 12.549 A 1.716 1.716 0 0 1 142.308 12.505 Q 142.547 12.473 142.751 12.524 A 0.726 0.726 0 0 1 142.865 12.562 Q 142.921 12.587 142.96 12.618 A 0.217 0.217 0 0 1 143.044 12.793 Z M 173.415 12.793 L 173.415 25.586 L 186.013 25.586 Q 186.422 25.586 186.488 26.339 A 3.668 3.668 0 0 1 186.501 26.66 A 3.655 3.655 0 0 1 185.912 28.627 A 5.482 5.482 0 0 1 185.134 29.59 L 173.415 29.59 L 173.415 55.176 A 14.608 14.608 0 0 0 173.681 58.099 Q 174.601 62.581 178.701 63.112 A 9.03 9.03 0 0 0 179.861 63.184 A 9.817 9.817 0 0 0 184.048 62.216 A 13.469 13.469 0 0 0 186.208 60.938 Q 186.497 61.082 186.501 61.604 A 1.93 1.93 0 0 1 186.501 61.621 A 4.622 4.622 0 0 1 186.477 62.115 Q 186.404 62.793 186.111 63.086 A 26.078 26.078 0 0 1 184.522 64.684 A 29.96 29.96 0 0 1 183.938 65.21 Q 182.742 66.26 180.495 67.358 A 11.12 11.12 0 0 1 178.123 68.216 A 9.139 9.139 0 0 1 176.052 68.457 A 14.421 14.421 0 0 1 173.664 68.266 A 12.1 12.1 0 0 1 172.341 67.969 A 9.948 9.948 0 0 1 169.237 66.444 A 11.272 11.272 0 0 1 169.118 66.357 A 6.447 6.447 0 0 1 167.553 64.662 A 9.021 9.021 0 0 1 166.75 63.086 Q 165.995 61.187 165.907 58.602 A 20.392 20.392 0 0 1 165.896 57.91 L 165.896 29.59 L 160.232 29.59 Q 159.777 29.59 159.746 28.828 A 2.849 2.849 0 0 1 159.743 28.711 A 0.342 0.342 0 0 1 159.784 28.577 Q 159.924 28.286 160.536 27.553 A 27.9 27.9 0 0 1 160.818 27.222 A 106.068 106.068 0 0 1 161.255 26.718 Q 161.85 26.036 162.162 25.709 A 7.364 7.364 0 0 1 162.283 25.586 L 165.896 25.586 L 165.896 19.434 Q 166.677 18.506 168.142 16.919 A 1450.242 1450.242 0 0 0 169.186 15.787 Q 170.01 14.893 170.681 14.16 Q 171.755 12.988 171.853 12.891 A 1.293 1.293 0 0 1 172.346 12.585 A 1.58 1.58 0 0 1 172.463 12.549 A 1.716 1.716 0 0 1 172.679 12.505 Q 172.918 12.473 173.122 12.524 A 0.726 0.726 0 0 1 173.237 12.562 Q 173.292 12.587 173.331 12.618 A 0.217 0.217 0 0 1 173.415 12.793 Z M 505.837 12.793 L 505.837 25.586 L 518.435 25.586 Q 518.844 25.586 518.91 26.339 A 3.668 3.668 0 0 1 518.923 26.66 A 3.655 3.655 0 0 1 518.334 28.627 A 5.482 5.482 0 0 1 517.556 29.59 L 505.837 29.59 L 505.837 55.176 A 14.608 14.608 0 0 0 506.103 58.099 Q 507.023 62.581 511.123 63.112 A 9.03 9.03 0 0 0 512.283 63.184 A 9.817 9.817 0 0 0 516.47 62.216 A 13.469 13.469 0 0 0 518.63 60.938 Q 518.919 61.082 518.923 61.604 A 1.93 1.93 0 0 1 518.923 61.621 A 4.622 4.622 0 0 1 518.899 62.115 Q 518.826 62.793 518.533 63.086 A 26.078 26.078 0 0 1 516.944 64.684 A 29.96 29.96 0 0 1 516.36 65.21 Q 515.163 66.26 512.917 67.358 A 11.12 11.12 0 0 1 510.545 68.216 A 9.139 9.139 0 0 1 508.474 68.457 A 14.421 14.421 0 0 1 506.086 68.266 A 12.1 12.1 0 0 1 504.763 67.969 A 9.948 9.948 0 0 1 501.659 66.444 A 11.272 11.272 0 0 1 501.54 66.357 A 6.447 6.447 0 0 1 499.975 64.662 A 9.021 9.021 0 0 1 499.172 63.086 Q 498.417 61.187 498.329 58.602 A 20.392 20.392 0 0 1 498.318 57.91 L 498.318 29.59 L 492.654 29.59 Q 492.199 29.59 492.168 28.828 A 2.849 2.849 0 0 1 492.165 28.711 A 0.342 0.342 0 0 1 492.206 28.577 Q 492.346 28.286 492.958 27.553 A 27.9 27.9 0 0 1 493.24 27.222 A 106.068 106.068 0 0 1 493.677 26.718 Q 494.272 26.036 494.584 25.709 A 7.364 7.364 0 0 1 494.704 25.586 L 498.318 25.586 L 498.318 19.434 Q 499.099 18.506 500.564 16.919 A 1450.242 1450.242 0 0 0 501.607 15.787 Q 502.431 14.893 503.103 14.16 Q 504.177 12.988 504.275 12.891 A 1.293 1.293 0 0 1 504.768 12.585 A 1.58 1.58 0 0 1 504.885 12.549 A 1.716 1.716 0 0 1 505.101 12.505 Q 505.34 12.473 505.544 12.524 A 0.726 0.726 0 0 1 505.658 12.562 Q 505.714 12.587 505.753 12.618 A 0.217 0.217 0 0 1 505.837 12.793 Z M 679.069 25.779 A 24.533 24.533 0 0 0 672.341 24.902 A 24.508 24.508 0 0 0 671.651 24.912 A 19.469 19.469 0 0 0 657.497 31.226 A 21.193 21.193 0 0 0 652.828 38.881 A 24.536 24.536 0 0 0 651.54 46.973 A 28.022 28.022 0 0 0 651.681 49.816 A 20.842 20.842 0 0 0 657.278 62.378 A 18.583 18.583 0 0 0 665.675 67.529 A 24.15 24.15 0 0 0 672.536 68.457 A 23.874 23.874 0 0 0 673.359 68.443 A 19.231 19.231 0 0 0 687.307 62.061 A 21.533 21.533 0 0 0 691.936 54.396 A 24.92 24.92 0 0 0 693.24 46.191 A 27.762 27.762 0 0 0 693.04 42.812 A 20.424 20.424 0 0 0 687.551 30.884 A 18.452 18.452 0 0 0 679.069 25.779 Z M 332.937 32.812 L 332.937 36.035 L 332.937 56.445 Q 332.937 61.083 333.264 62.971 A 5.612 5.612 0 0 0 333.425 63.672 A 0.725 0.725 0 0 0 333.681 64.023 Q 334.232 64.474 335.891 64.795 Q 338.161 65.234 339.577 65.234 Q 339.814 65.55 339.876 66.28 A 6.187 6.187 0 0 1 339.895 66.65 Q 339.915 67.503 339.682 67.917 A 0.887 0.887 0 0 1 339.577 68.066 A 7794.299 7794.299 0 0 0 337.225 67.952 Q 330.637 67.633 329.396 67.586 A 9.887 9.887 0 0 0 329.128 67.578 A 73.536 73.536 0 0 0 326.633 67.619 A 65.871 65.871 0 0 0 325.832 67.651 A 117.409 117.409 0 0 0 324.355 67.729 Q 323.6 67.774 322.762 67.831 A 201.324 201.324 0 0 0 322.195 67.871 A 152.604 152.604 0 0 1 321.212 67.938 Q 319.802 68.03 318.777 68.066 Q 318.436 67.677 318.459 66.659 A 5.934 5.934 0 0 1 318.459 66.65 A 5.847 5.847 0 0 1 318.488 66.177 Q 318.557 65.527 318.777 65.234 A 11.975 11.975 0 0 0 319.745 65.191 Q 320.825 65.103 322.258 64.834 A 38.677 38.677 0 0 0 322.463 64.795 Q 324.293 64.441 324.775 63.928 A 0.63 0.63 0 0 0 324.929 63.672 Q 325.32 62.451 325.417 56.445 L 325.417 38.281 A 49.15 49.15 0 0 0 325.394 36.703 Q 325.325 34.554 325.049 33.559 A 3.038 3.038 0 0 0 324.929 33.203 A 1.224 1.224 0 0 0 324.589 32.744 Q 324.239 32.435 323.587 32.196 A 6.951 6.951 0 0 0 323.074 32.031 Q 321.511 31.592 320.461 31.519 A 32.864 32.864 0 0 0 319.525 31.466 Q 319.022 31.445 318.581 31.445 A 0.408 0.408 0 0 1 318.499 31.311 Q 318.402 31.074 318.372 30.532 A 8.438 8.438 0 0 1 318.362 30.273 A 7.063 7.063 0 0 1 318.36 30.143 Q 318.354 29.27 318.581 28.906 Q 326.931 27.783 332.546 24.805 A 0.481 0.481 0 0 1 332.795 24.88 Q 333.02 25.015 333.254 25.391 Q 333.581 25.914 333.616 26.282 A 0.905 0.905 0 0 1 333.62 26.367 Q 333.031 30.495 332.95 32.298 A 11.586 11.586 0 0 0 332.937 32.812 Z M 638.894 32.812 L 638.894 36.035 L 638.894 56.445 Q 638.894 61.083 639.221 62.971 A 5.612 5.612 0 0 0 639.382 63.672 A 0.725 0.725 0 0 0 639.638 64.023 Q 640.189 64.474 641.848 64.795 Q 644.118 65.234 645.534 65.234 Q 645.771 65.55 645.833 66.28 A 6.187 6.187 0 0 1 645.852 66.65 Q 645.872 67.503 645.639 67.917 A 0.887 0.887 0 0 1 645.534 68.066 A 7794.299 7794.299 0 0 0 643.182 67.952 Q 636.594 67.633 635.353 67.586 A 9.887 9.887 0 0 0 635.085 67.578 A 73.536 73.536 0 0 0 632.59 67.619 A 65.871 65.871 0 0 0 631.789 67.651 A 117.409 117.409 0 0 0 630.312 67.729 Q 629.557 67.774 628.719 67.831 A 201.324 201.324 0 0 0 628.152 67.871 A 152.604 152.604 0 0 1 627.169 67.938 Q 625.759 68.03 624.734 68.066 Q 624.393 67.677 624.416 66.659 A 5.934 5.934 0 0 1 624.416 66.65 A 5.847 5.847 0 0 1 624.445 66.177 Q 624.514 65.527 624.734 65.234 A 11.975 11.975 0 0 0 625.702 65.191 Q 626.782 65.103 628.215 64.834 A 38.677 38.677 0 0 0 628.42 64.795 Q 630.25 64.441 630.732 63.928 A 0.63 0.63 0 0 0 630.886 63.672 Q 631.277 62.451 631.374 56.445 L 631.374 38.281 A 49.15 49.15 0 0 0 631.351 36.703 Q 631.282 34.554 631.006 33.559 A 3.038 3.038 0 0 0 630.886 33.203 A 1.224 1.224 0 0 0 630.546 32.744 Q 630.196 32.435 629.544 32.196 A 6.951 6.951 0 0 0 629.031 32.031 Q 627.468 31.592 626.418 31.519 A 32.864 32.864 0 0 0 625.482 31.466 Q 624.979 31.445 624.538 31.445 A 0.408 0.408 0 0 1 624.456 31.311 Q 624.359 31.074 624.329 30.532 A 8.438 8.438 0 0 1 624.319 30.273 A 7.063 7.063 0 0 1 624.317 30.143 Q 624.311 29.27 624.538 28.906 Q 632.888 27.783 638.503 24.805 A 0.481 0.481 0 0 1 638.752 24.88 Q 638.977 25.015 639.211 25.391 Q 639.538 25.914 639.573 26.282 A 0.905 0.905 0 0 1 639.577 26.367 Q 638.988 30.495 638.907 32.298 A 11.586 11.586 0 0 0 638.894 32.812 Z M 671.267 28.125 A 10.135 10.135 0 0 0 667.901 28.664 A 8.791 8.791 0 0 0 664.675 30.664 Q 662.038 33.203 660.989 36.865 A 26.727 26.727 0 0 0 660.112 41.507 A 34.412 34.412 0 0 0 659.939 45.02 A 29.534 29.534 0 0 0 661.452 54.468 Q 662.966 58.984 666.14 62.109 A 11.07 11.07 0 0 0 669.455 64.403 A 9.982 9.982 0 0 0 673.513 65.234 A 10.135 10.135 0 0 0 676.879 64.695 A 8.791 8.791 0 0 0 680.105 62.695 A 13.674 13.674 0 0 0 683.791 56.519 A 26.393 26.393 0 0 0 684.668 51.915 A 33.746 33.746 0 0 0 684.841 48.437 A 29.396 29.396 0 0 0 683.303 38.989 A 20.138 20.138 0 0 0 680.415 33.381 A 18.402 18.402 0 0 0 678.591 31.274 A 11.234 11.234 0 0 0 675.514 29.067 A 9.752 9.752 0 0 0 671.267 28.125 Z M 14.577 34.57 L 14.577 58.008 Q 14.577 61.426 17.532 63.281 A 12.248 12.248 0 0 0 20.912 64.778 A 10.681 10.681 0 0 0 23.659 65.137 Q 27.517 65.137 30.52 62.646 Q 33.523 60.156 34.988 56.47 A 20.767 20.767 0 0 0 36.452 48.73 Q 36.452 42.445 34.251 38.184 A 14.945 14.945 0 0 0 32.522 35.547 A 13.763 13.763 0 0 0 28.944 32.405 A 11.818 11.818 0 0 0 22.781 30.762 A 12.154 12.154 0 0 0 17.452 32.012 A 14.12 14.12 0 0 0 17.263 32.104 A 14.07 14.07 0 0 0 16.35 32.6 Q 14.577 33.658 14.577 34.57 Z M 605.154 58.594 L 605.154 33.887 A 2.127 2.127 0 0 0 604.707 32.629 Q 604.162 31.875 602.949 31.157 A 13.213 13.213 0 0 0 601.98 30.64 A 15.374 15.374 0 0 0 596.989 29.223 A 19.176 19.176 0 0 0 594.802 29.102 A 9.646 9.646 0 0 0 587.292 32.528 A 13.968 13.968 0 0 0 586.184 33.96 A 19.139 19.139 0 0 0 582.985 43.128 A 24.047 24.047 0 0 0 582.888 45.312 A 23.507 23.507 0 0 0 583.594 51.206 A 18.114 18.114 0 0 0 586.575 57.52 A 11.683 11.683 0 0 0 595.053 62.417 A 15.189 15.189 0 0 0 596.658 62.5 Q 599.783 62.5 602.468 61.182 A 12.144 12.144 0 0 0 603.448 60.648 Q 605.154 59.605 605.154 58.594 Z M 96.755 39.941 L 112.673 39.941 A 2.842 2.842 0 0 0 113.576 39.81 Q 114.808 39.397 114.919 37.695 A 4.01 4.01 0 0 0 114.924 37.495 Q 114.924 36.572 114.529 35.254 Q 114.089 33.789 113.21 32.227 A 7.314 7.314 0 0 0 111.266 30.01 A 8.886 8.886 0 0 0 110.671 29.59 A 6.735 6.735 0 0 0 107.075 28.517 A 8.108 8.108 0 0 0 106.911 28.516 A 7.857 7.857 0 0 0 102.712 29.687 A 10.062 10.062 0 0 0 100.735 31.26 A 8.637 8.637 0 0 0 99.709 32.544 A 22.139 22.139 0 0 0 98.332 34.966 A 19.225 19.225 0 0 0 97.903 35.913 A 26.816 26.816 0 0 0 97.468 37.011 Q 97.102 38 96.926 38.77 A 24.396 24.396 0 0 0 96.859 39.07 Q 96.671 39.941 96.755 39.941 Z M 394.216 39.941 L 410.134 39.941 A 2.842 2.842 0 0 0 411.037 39.81 Q 412.269 39.397 412.38 37.695 A 4.01 4.01 0 0 0 412.385 37.495 Q 412.385 36.572 411.99 35.254 Q 411.55 33.789 410.671 32.227 A 7.314 7.314 0 0 0 408.727 30.01 A 8.886 8.886 0 0 0 408.132 29.59 A 6.735 6.735 0 0 0 404.536 28.517 A 8.108 8.108 0 0 0 404.372 28.516 A 7.857 7.857 0 0 0 400.173 29.687 A 10.062 10.062 0 0 0 398.196 31.26 A 8.637 8.637 0 0 0 397.17 32.544 A 22.139 22.139 0 0 0 395.793 34.966 A 19.225 19.225 0 0 0 395.364 35.913 A 26.816 26.816 0 0 0 394.929 37.011 Q 394.563 38 394.387 38.77 A 24.396 24.396 0 0 0 394.32 39.07 Q 394.132 39.941 394.216 39.941 Z M 323.562 9.927 A 4.706 4.706 0 0 0 324.978 13.33 A 4.817 4.817 0 0 0 326.352 14.304 A 4.891 4.891 0 0 0 328.445 14.746 A 5.899 5.899 0 0 0 328.509 14.746 A 4.706 4.706 0 0 0 331.911 13.33 A 4.817 4.817 0 0 0 332.886 11.956 A 4.891 4.891 0 0 0 333.327 9.863 A 5.899 5.899 0 0 0 333.327 9.799 A 4.706 4.706 0 0 0 331.911 6.396 A 4.817 4.817 0 0 0 330.538 5.422 A 4.891 4.891 0 0 0 328.445 4.98 A 5.899 5.899 0 0 0 328.381 4.981 A 4.706 4.706 0 0 0 324.978 6.396 A 4.817 4.817 0 0 0 324.004 7.77 A 4.891 4.891 0 0 0 323.562 9.863 A 5.899 5.899 0 0 0 323.562 9.927 Z M 629.519 9.927 A 4.706 4.706 0 0 0 630.935 13.33 A 4.817 4.817 0 0 0 632.309 14.304 A 4.891 4.891 0 0 0 634.402 14.746 A 5.899 5.899 0 0 0 634.466 14.746 A 4.706 4.706 0 0 0 637.868 13.33 A 4.817 4.817 0 0 0 638.843 11.956 A 4.891 4.891 0 0 0 639.284 9.863 A 5.899 5.899 0 0 0 639.284 9.799 A 4.706 4.706 0 0 0 637.868 6.396 A 4.817 4.817 0 0 0 636.495 5.422 A 4.891 4.891 0 0 0 634.402 4.98 A 5.899 5.899 0 0 0 634.338 4.981 A 4.706 4.706 0 0 0 630.935 6.396 A 4.817 4.817 0 0 0 629.961 7.77 A 4.891 4.891 0 0 0 629.519 9.863 A 5.899 5.899 0 0 0 629.519 9.927 Z" vector-effect="non-scaling-stroke"/></g>
<g id="title" transform="scale(0.27) translate(30, 420)" stroke-linecap="round" fill-rule="evenodd" font-size="9pt" stroke="none" stroke-width="0mm" fill="#000"><path d="M 434.2 1.201 L 443 1.201 L 443 70.801 L 434.2 70.801 L 396.8 17.101 L 396.8 70.801 L 388 70.801 L 388 1.201 L 396.8 1.201 L 434.2 54.901 L 434.2 1.201 Z M 238.2 1.201 L 247 1.201 L 247 70.801 L 238.2 70.801 L 238.2 38.601 L 200.8 38.601 L 200.8 70.801 L 192 70.801 L 192 1.201 L 200.8 1.201 L 200.8 30.401 L 238.2 30.401 L 238.2 1.201 Z M 1536.4 1.201 L 1545.2 1.201 L 1545.2 70.801 L 1536.4 70.801 L 1536.4 38.601 L 1499 38.601 L 1499 70.801 L 1490.2 70.801 L 1490.2 1.201 L 1499 1.201 L 1499 30.401 L 1536.4 30.401 L 1536.4 1.201 Z M 731.7 9.601 L 699 9.601 L 699 31.601 L 729.5 31.601 L 729.5 39.601 L 699 39.601 L 699 62.401 L 731.7 62.401 L 731.7 70.801 L 690.2 70.801 L 690.2 1.201 L 731.7 1.201 L 731.7 9.601 Z M 1173.7 9.601 L 1141 9.601 L 1141 31.601 L 1171.5 31.601 L 1171.5 39.601 L 1141 39.601 L 1141 62.401 L 1173.7 62.401 L 1173.7 70.801 L 1132.2 70.801 L 1132.2 1.201 L 1173.7 1.201 L 1173.7 9.601 Z M 826.2 42.001 L 826.2 1.201 L 835 1.201 L 835 41.701 A 37.007 37.007 0 0 0 835.536 48.203 Q 836.177 51.791 837.585 54.663 A 18.992 18.992 0 0 0 839.55 57.851 A 14.767 14.767 0 0 0 849.617 63.592 A 21.879 21.879 0 0 0 852.7 63.801 A 19.766 19.766 0 0 0 858.246 63.066 A 14.423 14.423 0 0 0 865.85 57.851 A 20.602 20.602 0 0 0 869.258 50.854 Q 870.4 46.811 870.4 41.701 L 870.4 1.201 L 879.2 1.201 L 879.2 42.001 Q 879.2 53.051 874.808 60.403 A 25.155 25.155 0 0 1 872.25 63.951 A 22.675 22.675 0 0 1 858.647 71.498 A 33.576 33.576 0 0 1 852.7 72.001 A 31.618 31.618 0 0 1 844.539 71.006 A 22.251 22.251 0 0 1 833.15 63.951 Q 826.775 56.567 826.248 44.262 A 52.782 52.782 0 0 1 826.2 42.001 Z M 1340.2 42.001 L 1340.2 1.201 L 1349 1.201 L 1349 41.701 A 37.007 37.007 0 0 0 1349.536 48.203 Q 1350.177 51.791 1351.585 54.663 A 18.992 18.992 0 0 0 1353.55 57.851 A 14.767 14.767 0 0 0 1363.617 63.592 A 21.879 21.879 0 0 0 1366.7 63.801 A 19.766 19.766 0 0 0 1372.246 63.066 A 14.423 14.423 0 0 0 1379.85 57.851 A 20.602 20.602 0 0 0 1383.258 50.854 Q 1384.4 46.811 1384.4 41.701 L 1384.4 1.201 L 1393.2 1.201 L 1393.2 42.001 Q 1393.2 53.051 1388.808 60.403 A 25.155 25.155 0 0 1 1386.25 63.951 A 22.675 22.675 0 0 1 1372.647 71.498 A 33.576 33.576 0 0 1 1366.7 72.001 A 31.618 31.618 0 0 1 1358.539 71.006 A 22.251 22.251 0 0 1 1347.15 63.951 Q 1340.775 56.567 1340.248 44.262 A 52.782 52.782 0 0 1 1340.2 42.001 Z M 124.1 66.401 L 124.1 56.901 A 79.849 79.849 0 0 0 129.693 59.688 Q 132.628 61.002 135.349 61.888 A 46.537 46.537 0 0 0 136.35 62.201 Q 142 63.901 147.5 63.901 A 24.689 24.689 0 0 0 151.671 63.571 Q 153.903 63.188 155.69 62.36 A 11.807 11.807 0 0 0 158.2 60.801 A 10.121 10.121 0 0 0 161.955 53.455 A 14.337 14.337 0 0 0 162 52.301 A 10.781 10.781 0 0 0 161.598 49.293 A 8.641 8.641 0 0 0 159.9 46.101 A 15.004 15.004 0 0 0 155.407 42.505 A 17.659 17.659 0 0 0 154.6 42.101 Q 151.471 40.634 146.238 38.881 A 155.564 155.564 0 0 0 146 38.801 Q 141.633 37.323 138.417 35.935 A 51.83 51.83 0 0 1 135.55 34.601 Q 131.6 32.601 128.8 28.901 Q 126 25.201 126 19.301 Q 126 10.501 132.4 5.251 A 21.946 21.946 0 0 1 140.716 1.079 Q 143.958 0.203 147.797 0.039 A 42.197 42.197 0 0 1 149.6 0.001 A 42.609 42.609 0 0 1 164.825 2.693 A 40.336 40.336 0 0 1 168.9 4.501 L 168.9 13.701 A 46.935 46.935 0 0 0 160.333 9.873 A 34.554 34.554 0 0 0 149.6 8.101 Q 142.7 8.101 138.8 10.851 Q 134.9 13.601 134.9 18.401 A 8.963 8.963 0 0 0 135.297 21.122 A 7.418 7.418 0 0 0 136.9 23.901 A 14.992 14.992 0 0 0 141.176 27.146 A 17.387 17.387 0 0 0 141.8 27.451 Q 144.7 28.801 150 30.701 Q 154.773 32.292 158.29 33.831 A 54.101 54.101 0 0 1 160.8 35.001 A 19.779 19.779 0 0 1 167.764 40.853 A 22.983 22.983 0 0 1 167.95 41.101 Q 170.742 44.886 170.891 50.731 A 26.131 26.131 0 0 1 170.9 51.401 Q 170.9 57.601 168.1 62.251 Q 165.3 66.901 160.1 69.451 A 24.675 24.675 0 0 1 152.781 71.672 A 32.126 32.126 0 0 1 148.1 72.001 A 49.578 49.578 0 0 1 139.889 71.292 A 58.853 58.853 0 0 1 136 70.501 Q 129.7 69.001 124.1 66.401 Z M 577.5 70.801 L 566.1 70.801 L 558.8 63.401 A 35.585 35.585 0 0 1 550.464 69.127 A 28.23 28.23 0 0 1 538 72.001 A 27.004 27.004 0 0 1 531.404 71.224 A 22.579 22.579 0 0 1 526.55 69.401 Q 521.5 66.801 518.7 62.151 A 19.695 19.695 0 0 1 515.911 52.433 A 23.587 23.587 0 0 1 515.9 51.701 Q 515.9 45.601 519.15 40.701 Q 521.968 36.453 527.378 32.806 A 46.607 46.607 0 0 1 529.1 31.701 A 27.256 27.256 0 0 1 525.952 24.064 A 24.025 24.025 0 0 1 525.3 18.501 A 21.095 21.095 0 0 1 526.158 12.34 A 16.587 16.587 0 0 1 530.6 5.101 A 17.948 17.948 0 0 1 540.346 0.33 A 25.234 25.234 0 0 1 544.5 0.001 Q 552.7 0.001 559.5 4.901 L 559.5 13.701 Q 556.3 11.001 552.55 9.551 A 21.699 21.699 0 0 0 547.978 8.314 A 18.493 18.493 0 0 0 545.2 8.101 Q 540.257 8.101 537.427 10.872 A 9.12 9.12 0 0 0 537.25 11.051 A 9.875 9.875 0 0 0 534.707 15.941 A 14.479 14.479 0 0 0 534.4 19.001 A 16.605 16.605 0 0 0 535.778 25.545 A 20.737 20.737 0 0 0 536.85 27.701 Q 538.496 30.59 541.519 34.066 A 79.878 79.878 0 0 0 544.8 37.601 L 558.7 51.701 A 62.727 62.727 0 0 0 561.77 47.487 Q 563.242 45.294 564.776 42.694 A 136.811 136.811 0 0 0 567.2 38.401 L 567.6 38.401 L 573.1 43.201 Q 568.9 51.501 564.3 57.401 L 577.5 70.801 Z M 1467 5.301 L 1467 15.301 L 1466.6 15.301 A 22.585 22.585 0 0 0 1461.674 11.714 A 28.978 28.978 0 0 0 1458.3 10.151 A 28.852 28.852 0 0 0 1449.76 8.282 A 34.137 34.137 0 0 0 1447.4 8.201 Q 1436 8.201 1430.65 15.601 Q 1426.397 21.484 1425.525 30.905 A 55.334 55.334 0 0 0 1425.3 36.001 A 51.785 51.785 0 0 0 1425.876 43.984 Q 1427.055 51.529 1430.65 56.501 A 17.183 17.183 0 0 0 1441.115 63.249 A 27.539 27.539 0 0 0 1447.3 63.901 A 30.409 30.409 0 0 0 1457.416 62.231 A 28.984 28.984 0 0 0 1458.05 62.001 A 25.959 25.959 0 0 0 1463.757 59.04 A 22.523 22.523 0 0 0 1466.6 56.701 L 1467 56.701 L 1467 66.701 A 33.815 33.815 0 0 1 1458.648 70.387 A 38.138 38.138 0 0 1 1457.7 70.651 Q 1452.6 72.001 1447.1 72.001 Q 1437 72.001 1429.95 67.501 A 27.67 27.67 0 0 1 1419.518 55.279 A 33.386 33.386 0 0 1 1419.35 54.901 A 41.019 41.019 0 0 1 1416.479 44.934 A 56.045 56.045 0 0 1 1415.8 36.001 Q 1415.8 25.201 1419.35 17.101 A 28.64 28.64 0 0 1 1425.677 7.864 A 27.239 27.239 0 0 1 1429.95 4.501 A 28.042 28.042 0 0 1 1439.954 0.634 A 38.571 38.571 0 0 1 1447.1 0.001 Q 1452.6 0.001 1457.7 1.351 Q 1462.8 2.701 1467 5.301 Z M 1112.7 70.801 L 1102.1 70.801 L 1088 43.501 L 1087 43.501 L 1071 43.501 L 1071 70.801 L 1062.2 70.801 L 1062.2 1.201 L 1085.8 1.201 A 47.343 47.343 0 0 1 1092.616 1.658 Q 1100.099 2.75 1104.4 6.451 A 16.875 16.875 0 0 1 1109.779 15.431 Q 1110.455 18.148 1110.497 21.369 A 32.934 32.934 0 0 1 1110.5 21.801 A 28.361 28.361 0 0 1 1109.913 27.72 A 20.522 20.522 0 0 1 1107.2 34.501 A 17.517 17.517 0 0 1 1099.239 41.223 A 22.465 22.465 0 0 1 1097.5 41.901 L 1112.7 70.801 Z M 40.6 9.601 L 8.8 9.601 L 8.8 32.801 L 34 32.801 L 34 40.801 L 8.8 40.801 L 8.8 70.801 L 0 70.801 L 0 1.201 L 40.6 1.201 L 40.6 9.601 Z M 1007.9 1.201 L 1017.7 1.201 L 993.1 45.401 L 993.1 70.801 L 984.3 70.801 L 984.3 45.401 L 959.7 1.201 L 970 1.201 L 988.7 36.001 L 1007.9 1.201 Z M 102.1 70.801 L 95 52.401 L 61.5 52.401 L 54.4 70.801 L 45.6 70.801 L 72.4 1.201 L 84.6 1.201 L 111.4 70.801 L 102.1 70.801 Z M 802.3 70.801 L 795.2 52.401 L 761.7 52.401 L 754.6 70.801 L 745.8 70.801 L 772.6 1.201 L 784.8 1.201 L 811.6 70.801 L 802.3 70.801 Z M 919.3 70.801 L 919.3 10.001 L 898.3 10.001 L 898.3 1.201 L 949.1 1.201 L 949.1 10.001 L 928.1 10.001 L 928.1 70.801 L 919.3 70.801 Z M 1211.3 70.801 L 1211.3 10.001 L 1190.3 10.001 L 1190.3 1.201 L 1241.1 1.201 L 1241.1 10.001 L 1220.1 10.001 L 1220.1 70.801 L 1211.3 70.801 Z M 644.6 70.801 L 620.2 70.801 L 620.2 1.201 L 645.3 1.201 A 37.166 37.166 0 0 1 651.431 1.674 Q 654.695 2.221 657.313 3.4 A 17.455 17.455 0 0 1 661.1 5.701 Q 666.7 10.201 666.7 19.401 A 22.429 22.429 0 0 1 665.948 25.397 A 15.163 15.163 0 0 1 659 34.601 A 15.952 15.952 0 0 1 665.747 39.792 Q 669 44.229 669 51.301 Q 669 59.083 665.201 63.659 A 14.577 14.577 0 0 1 662.6 66.101 A 21.752 21.752 0 0 1 656.005 69.314 Q 653.031 70.22 649.447 70.574 A 49.371 49.371 0 0 1 644.6 70.801 Z M 325.227 71.14 A 37.881 37.881 0 0 0 333.5 72.001 Q 343.6 72.001 350.75 67.501 A 28.257 28.257 0 0 0 354.887 64.337 A 29.609 29.609 0 0 0 361.65 54.901 A 39.079 39.079 0 0 0 364.583 45.496 A 52.589 52.589 0 0 0 365.4 36.001 A 53.407 53.407 0 0 0 364.733 27.369 A 39.525 39.525 0 0 0 361.65 17.101 A 34.326 34.326 0 0 0 361.412 16.598 A 28.669 28.669 0 0 0 350.75 4.501 A 28.29 28.29 0 0 0 341.773 0.863 A 37.881 37.881 0 0 0 333.5 0.001 Q 323.4 0.001 316.25 4.501 A 28.257 28.257 0 0 0 312.113 7.665 A 29.609 29.609 0 0 0 305.35 17.101 A 39.02 39.02 0 0 0 302.439 26.39 Q 301.6 30.894 301.6 36.001 A 53.611 53.611 0 0 0 302.233 44.419 Q 303.141 50.129 305.35 54.901 A 34.326 34.326 0 0 0 305.588 55.404 A 28.669 28.669 0 0 0 316.25 67.501 A 28.29 28.29 0 0 0 325.227 71.14 Z M 1277.427 71.14 A 37.881 37.881 0 0 0 1285.7 72.001 Q 1295.8 72.001 1302.95 67.501 A 28.257 28.257 0 0 0 1307.087 64.337 A 29.609 29.609 0 0 0 1313.85 54.901 A 39.079 39.079 0 0 0 1316.783 45.496 A 52.589 52.589 0 0 0 1317.6 36.001 A 53.407 53.407 0 0 0 1316.933 27.369 A 39.525 39.525 0 0 0 1313.85 17.101 A 34.326 34.326 0 0 0 1313.612 16.598 A 28.669 28.669 0 0 0 1302.95 4.501 A 28.29 28.29 0 0 0 1293.973 0.863 A 37.881 37.881 0 0 0 1285.7 0.001 Q 1275.6 0.001 1268.45 4.501 A 28.257 28.257 0 0 0 1264.313 7.665 A 29.609 29.609 0 0 0 1257.55 17.101 A 39.02 39.02 0 0 0 1254.639 26.39 Q 1253.8 30.894 1253.8 36.001 A 53.611 53.611 0 0 0 1254.433 44.419 Q 1255.341 50.129 1257.55 54.901 A 34.326 34.326 0 0 0 1257.788 55.404 A 28.669 28.669 0 0 0 1268.45 67.501 A 28.29 28.29 0 0 0 1277.427 71.14 Z M 333.5 64.001 A 26.34 26.34 0 0 0 340.247 63.188 A 17.805 17.805 0 0 0 350.3 56.451 Q 354.998 50.118 355.755 40.02 A 53.781 53.781 0 0 0 355.9 36.001 A 48.128 48.128 0 0 0 355.242 27.786 Q 354.463 23.297 352.763 19.689 A 24.322 24.322 0 0 0 350.3 15.551 A 18.106 18.106 0 0 0 338.597 8.444 A 27.901 27.901 0 0 0 333.5 8.001 A 26.34 26.34 0 0 0 326.753 8.814 A 17.805 17.805 0 0 0 316.7 15.551 Q 312.002 21.885 311.245 31.983 A 53.781 53.781 0 0 0 311.1 36.001 A 48.128 48.128 0 0 0 311.758 44.216 Q 312.537 48.705 314.237 52.313 A 24.322 24.322 0 0 0 316.7 56.451 A 18.106 18.106 0 0 0 328.403 63.558 A 27.901 27.901 0 0 0 333.5 64.001 Z M 1285.7 64.001 A 26.34 26.34 0 0 0 1292.447 63.188 A 17.805 17.805 0 0 0 1302.5 56.451 Q 1307.198 50.118 1307.955 40.02 A 53.781 53.781 0 0 0 1308.1 36.001 A 48.128 48.128 0 0 0 1307.442 27.786 Q 1306.663 23.297 1304.963 19.689 A 24.322 24.322 0 0 0 1302.5 15.551 A 18.106 18.106 0 0 0 1290.797 8.444 A 27.901 27.901 0 0 0 1285.7 8.001 A 26.34 26.34 0 0 0 1278.953 8.814 A 17.805 17.805 0 0 0 1268.9 15.551 Q 1264.202 21.885 1263.445 31.983 A 53.781 53.781 0 0 0 1263.3 36.001 A 48.128 48.128 0 0 0 1263.958 44.216 Q 1264.737 48.705 1266.437 52.313 A 24.322 24.322 0 0 0 1268.9 56.451 A 18.106 18.106 0 0 0 1280.603 63.558 A 27.901 27.901 0 0 0 1285.7 64.001 Z M 271.1 70.801 L 271.1 1.201 L 279.9 1.201 L 279.9 70.801 L 271.1 70.801 Z M 64.4 44.901 L 92.1 44.901 L 78.3 8.901 L 64.4 44.901 Z M 764.6 44.901 L 792.3 44.901 L 778.5 8.901 L 764.6 44.901 Z M 1085.8 9.601 L 1071 9.601 L 1071 35.201 L 1085.9 35.201 Q 1093.7 35.201 1097.35 32.151 Q 1101 29.101 1101 21.801 A 19.244 19.244 0 0 0 1100.719 18.389 Q 1100.389 16.561 1099.671 15.154 A 8 8 0 0 0 1097.35 12.351 Q 1093.7 9.601 1085.8 9.601 Z M 644.4 39.401 L 629 39.401 L 629 62.401 L 644.6 62.401 Q 652.5 62.401 656 60.001 Q 658.628 58.199 659.283 53.971 A 20.126 20.126 0 0 0 659.5 50.901 A 19.678 19.678 0 0 0 659.264 47.732 Q 658.585 43.582 655.95 41.801 Q 652.833 39.694 646.287 39.437 A 48.099 48.099 0 0 0 644.4 39.401 Z M 644.2 9.601 L 629 9.601 L 629 31.101 L 644.2 31.101 A 30.127 30.127 0 0 0 647.686 30.914 Q 651.295 30.492 653.437 29.118 A 7.576 7.576 0 0 0 654.15 28.601 Q 657.2 26.101 657.2 19.801 A 17.189 17.189 0 0 0 656.985 16.974 Q 656.743 15.529 656.23 14.404 A 6.412 6.412 0 0 0 654.15 11.801 A 9.211 9.211 0 0 0 651.734 10.594 Q 649.298 9.759 645.633 9.626 A 39.532 39.532 0 0 0 644.2 9.601 Z M 553.2 57.801 L 535.9 40.201 L 533.8 38.001 Q 530.302 40.068 528.29 42.482 A 13.385 13.385 0 0 0 527.35 43.751 A 12.607 12.607 0 0 0 525.445 48.998 A 16.303 16.303 0 0 0 525.3 51.201 A 16.449 16.449 0 0 0 525.799 55.364 A 11.859 11.859 0 0 0 528.85 60.801 Q 532.4 64.401 538.4 64.401 A 19.047 19.047 0 0 0 548.179 61.626 A 28.16 28.16 0 0 0 553.2 57.801 Z" vector-effect="non-scaling-stroke"/></g>
</svg>
