<svg width="48" height="48" viewBox="0 0 48 48" xmlns="http://www.w3.org/2000/svg" xmlns:xlink="http://www.w3.org/1999/xlink" xmlns:figma="http://www.figma.com/figma/ns">
  <g id="g294" transform="translate(37.6726,16.6645)">
    <path
      id="path296"
      d="m 0,0 c 0,-3.485 -2.792,-6.336 -6.204,-6.336 h -15.505 c -3.413,0 -6.204,2.851 -6.204,6.336 v 15.241 c 0,3.485 2.791,6.336 6.204,6.336 H -6.204 C -2.792,21.577 0,18.726 0,15.241 Z m -5.919,24.62 h -16.076 c -4.929,0 -8.962,-4.118 -8.962,-9.152 V -0.227 c 0,-5.034 4.033,-9.153 8.962,-9.153 h 16.076 c 4.929,0 8.962,4.119 8.962,9.153 v 15.695 c 0,5.034 -4.033,9.152 -8.962,9.152" />
  </g>
  <g
    transform="translate(23.7137,18.6501)"
    id="g298">
    <path
    id="path300"
    d="m 0,0 c -3.046,0 -5.515,2.522 -5.515,5.632 0,3.111 2.469,5.633 5.515,5.633 3.046,0 5.515,-2.522 5.515,-5.632 C 5.515,2.522 3.046,0 0,0 m 0,14.363 c -4.721,0 -8.548,-3.909 -8.548,-8.73 0,-4.822 3.827,-8.731 8.548,-8.731 4.721,0 8.548,3.909 8.548,8.73 0,4.822 -3.827,8.731 -8.548,8.731" />
  </g>
  <g transform="translate(34.6517,33.4821)" id="g302">
    <path
    id="path304"
    d="m 0,0 c 0,-1.089 -0.864,-1.971 -1.93,-1.971 -1.066,0 -1.93,0.882 -1.93,1.971 0,1.089 0.864,1.971 1.93,1.971 C -0.864,1.971 0,1.089 0,0" />
  </g>
</svg>
